<svg xmlns="http://www.w3.org/2000/svg" viewBox="0 0 48 48"><linearGradient id="Ld6sqrtcxMyckEl6xeDdMa" x1="9.993" x2="40.615" y1="9.993" y2="40.615" gradientUnits="userSpaceOnUse"><stop offset="0" stop-color="#2aa4f4"/><stop offset="1" stop-color="#007ad9"/></linearGradient><path fill="url(#Ld6sqrtcxMyckEl6xeDdMa)" d="M0.000 48.000 L 0.000 48.000 48.000 48.000 L 48.000 48.000 48.000 48.000 L 48.000 0.000 48.000 0.000 L 0.000 0.000 0.000"/><path fill="#fff" d="M 26.304 29.301 L 31.48 29.301 L 32.293 24.043 L 26.304 24.043 L 26.304 21.169 C 26.304 18.985 27.018 17.048 29.061 17.048 L 32.344 17.048 L 32.344 12.46 C 31.767 12.382 30.547 12.212 28.242 12.212 C 23.428 12.212 20.606 14.754 20.606 20.546 L 20.606 24.044 L 15.657 24.044 L 15.657 29.302 L 20.605 29.302 L 20.597 48 C 21.597 48 25.397 48 26.297 48 L 26.304 29.301 Z"/></svg>