<svg viewBox="0 0 1000 1000" xmlns="http://www.w3.org/2000/svg" version="1.1">
<g>
    <path fill="#52ade5" d="M 1000 0 L 0 0 L 0 1000 L 1000 1000 L 1000 0"></path>
    <path fill="#ffffff" d="M 833.333 293.234 C 808.807 304.114 782.443 311.467 754.78 314.774 C 783.013 297.844 804.703 271.04 814.917 239.1 C 788.487 254.777 759.217 266.157 728.06 272.29 C 703.113 245.71 667.567 229.1 628.227 229.1 C 552.693 229.1 491.45 290.337 491.45 365.874 C 491.45 376.59 492.66 387.03 494.993 397.044 C 381.32 391.337 280.536 336.887 213.079 254.137 C 201.306 274.337 194.561 297.83 194.561 322.897 C 194.561 370.35 218.706 412.214 255.408 436.74 C 232.987 436.03 211.896 429.877 193.457 419.634 C 193.444 420.204 193.444 420.777 193.444 421.354 C 193.444 487.624 240.591 542.9 303.159 555.47 C 291.684 558.594 279.6 560.267 267.126 560.267 C 258.313 560.267 249.745 559.407 241.392 557.814 C 258.797 612.147 309.309 651.697 369.16 652.797 C 322.35 689.484 263.376 711.347 199.294 711.347 C 188.254 711.347 177.367 710.7 166.667 709.433 C 227.195 748.244 299.09 770.89 376.33 770.89 C 627.907 770.89 765.483 562.474 765.483 381.73 C 765.483 375.804 765.347 369.904 765.083 364.037 C 791.81 344.754 814.997 320.664 833.333 293.234"></path>
</g>
</svg>