<svg id="svg" version="1.1" viewBox="0 0 512 512" xmlns="http://www.w3.org/2000/svg">
	<path fill="#7D3DAF" d="M0.000 256.000 L 0.000 512.000 256.000 512.000 L 512.000 512.000 512.000 256.000 L 512.000 0.000 256.000 0.000 L 0.000 0.000 0.000 256.000 "/>
	<path fill="white" d="M307.036 83.880 C 325.785 86.205,341.402 89.096,347.959 91.455 C 373.028 100.473,400.503 125.625,412.475 150.515 C 416.536 158.957,418.960 168.567,422.185 189.000 C 424.210 201.828,424.473 207.074,424.469 234.500 C 424.465 259.043,424.098 267.889,422.706 276.970 C 417.141 313.277,413.691 321.733,395.304 344.118 C 383.775 358.156,363.463 372.508,347.215 378.098 C 344.283 379.107,336.623 380.846,330.192 381.964 C 306.123 386.147,293.802 387.191,262.500 387.702 L 231.500 388.208 211.706 408.541 C 190.889 429.924,188.319 431.800,181.382 430.675 C 179.512 430.371,176.584 429.128,174.877 427.913 C 169.644 424.186,169.000 421.149,169.000 400.187 C 169.000 379.648,168.886 379.216,163.000 377.514 C 157.865 376.028,143.487 367.549,134.050 360.440 C 125.188 353.764,116.153 344.301,107.851 333.000 C 103.611 327.227,96.258 311.909,94.650 305.500 C 92.962 298.766,90.806 286.920,88.827 273.500 C 87.019 261.241,87.018 207.778,88.824 195.500 C 91.188 179.443,94.116 164.629,96.088 158.758 C 101.954 141.290,118.783 119.827,137.394 106.079 C 144.577 100.772,157.791 93.652,165.165 91.115 C 174.417 87.932,200.466 83.991,228.000 81.610 C 230.475 81.396,245.550 81.357,261.500 81.525 C 283.162 81.752,294.684 82.348,307.036 83.880 M229.500 112.091 C 209.583 113.422,183.971 117.034,175.638 119.687 C 164.847 123.123,152.638 131.438,142.109 142.522 C 129.705 155.580,125.344 163.794,122.140 180.130 C 118.262 199.905,117.514 208.917,117.543 235.500 C 117.572 262.394,118.515 272.298,123.054 293.372 C 127.733 315.096,148.488 338.374,171.809 348.055 C 176.039 349.811,179.831 351.754,180.235 352.374 C 180.639 352.993,180.976 367.080,180.985 383.679 C 180.998 409.767,181.213 414.070,182.571 415.429 C 183.436 416.293,184.652 417.000,185.275 417.000 C 185.898 417.000,190.231 413.063,194.903 408.250 C 225.391 376.851,243.646 358.891,245.434 358.537 C 246.570 358.312,256.725 357.871,268.000 357.557 C 293.561 356.847,321.277 353.695,335.390 349.895 C 357.016 344.072,383.550 317.000,388.484 295.725 C 396.046 263.120,396.940 221.574,390.855 185.555 C 387.426 165.262,383.396 156.902,370.361 143.046 C 362.196 134.366,356.682 129.973,347.295 124.667 C 339.523 120.274,333.895 118.511,321.500 116.587 C 288.358 111.443,259.966 110.055,229.500 112.091 M277.477 150.993 C 304.568 158.306,326.061 178.464,334.974 204.922 C 337.167 211.434,339.950 228.526,339.982 235.679 C 340.002 240.204,338.085 243.000,334.964 243.000 C 332.115 243.000,330.958 239.855,329.880 229.183 C 328.471 215.233,326.480 207.637,321.709 198.000 C 318.328 191.173,315.729 187.729,308.500 180.500 C 294.544 166.544,283.538 161.122,263.546 158.357 C 253.090 156.911,249.000 155.313,249.000 152.674 C 249.000 152.115,249.787 150.781,250.750 149.710 C 252.306 147.979,253.443 147.823,261.000 148.302 C 265.675 148.598,273.090 149.809,277.477 150.993 M206.268 162.124 C 213.243 170.409,222.968 184.005,225.849 189.500 C 231.229 199.759,230.048 205.177,220.674 213.236 C 213.927 219.037,213.162 221.667,215.931 229.545 C 223.553 251.229,242.512 270.366,263.346 277.404 C 270.512 279.825,273.995 278.502,281.432 270.535 C 287.435 264.104,287.614 264.000,292.747 264.000 C 297.664 264.000,298.720 264.514,311.231 272.998 C 329.878 285.644,332.992 288.518,333.691 293.736 C 335.230 305.206,316.851 325.000,304.663 325.000 C 299.974 325.000,291.403 321.731,274.859 313.632 C 230.448 291.893,199.646 260.659,178.838 216.264 C 171.493 200.593,167.999 191.384,168.010 187.724 C 168.034 179.602,178.377 166.034,188.756 160.506 C 195.652 156.833,202.334 157.450,206.268 162.124 M273.886 171.535 C 288.947 175.085,304.161 186.321,310.818 198.809 C 316.929 210.276,320.026 228.831,316.429 232.429 C 314.346 234.511,311.294 234.424,310.150 232.250 C 309.643 231.287,308.900 227.575,308.498 224.000 C 305.826 200.253,292.076 185.134,268.906 180.465 C 264.833 179.644,260.488 178.539,259.250 178.008 C 256.774 176.946,256.196 173.204,258.200 171.200 C 259.822 169.578,266.156 169.713,273.886 171.535 M274.725 193.415 C 287.930 196.930,295.633 206.578,296.233 220.352 C 296.656 230.070,288.205 228.934,286.626 219.060 C 285.094 209.479,279.954 203.808,271.584 202.464 C 269.338 202.103,266.488 201.166,265.250 200.381 C 261.184 197.802,263.063 192.103,268.000 192.042 C 268.825 192.032,271.851 192.650,274.725 193.415"/>
	
</svg>