<svg xmlns="http://www.w3.org/2000/svg" viewBox="0 0 48 48"><path fill="#1976d2" d="M0.000 48.000 L 0.000 48.000 48.000 48.000 L 48.000 48.000 48.000 48.000 L 48.000 0.000 48.000 0.000 L 0.000 0.000 0.000"/><path fill="#fff" d="M 38.324 16.249 C 38.379 16.068 38.405 15.9 38.398 15.75 C 38.38 15.316 38.081 15 37.378 15 L 34.237 15 C 33.443 15 33.078 15.48 32.864 15.961 C 32.864 15.961 30.906 19.992 28.648 22.65 C 27.917 23.419 27.544 23.4 27.148 23.4 C 26.936 23.4 26.399 23.143 26.399 22.439 L 26.399 16.217 C 26.399 15.384 26.192 15 25.521 15 L 19.942 15 C 19.455 15 19.2 15.384 19.2 15.769 C 19.2 16.57 20.277 16.762 20.4 19.004 L 20.4 23.352 C 20.4 24.408 20.216 24.6 19.82 24.6 C 18.752 24.6 16.65 21 15.243 16.282 C 14.937 15.353 14.633 15 13.84 15 L 10.668 15 C 9.752 15 9.6 15.449 9.6 15.929 C 9.6 16.794 10.32 21.472 14.25 26.85 C 17.1 30.75 20.855 33 24.179 33 C 26.192 33 26.398 32.488 26.398 31.687 L 26.398 28.121 C 26.399 27.16 26.62 27 27.26 27 C 27.717 27 28.65 27.3 30.45 29.4 C 32.526 31.822 32.902 33 34.093 33 L 37.234 33 C 37.964 33 38.382 32.694 38.4 32.1 C 38.403 31.949 38.381 31.78 38.332 31.591 C 38.099 30.9 37.032 29.21 35.7 27.6 C 34.961 26.708 34.233 25.825 33.899 25.345 C 33.673 25.032 33.589 24.811 33.599 24.6 C 33.611 24.378 33.726 24.167 33.899 23.872 C 33.867 23.872 37.928 18.17 38.324 16.249 Z"/></svg>