<?xml version="1.0" encoding="utf-8"?>
<!-- Generator: Adobe Illustrator 20.1.0, SVG Export Plug-In . SVG Version: 6.00 Build 0)  -->
<svg version="1.1" id="logos" xmlns="http://www.w3.org/2000/svg" xmlns:xlink="http://www.w3.org/1999/xlink" x="0px" y="0px"
	 viewBox="0 0 125 40" enable-background="new 0 0 125 40" xml:space="preserve">
<g>
	<g>
		<path d="M41.958,7.837v10.008l0.003,0.13c-0.659-1.018-2.192-2.686-5.169-2.686c-2.988,0-7.596,2.196-7.596,8.424
			s4.446,8.451,7.821,8.451c2.302,0,4.187-1.24,5.175-2.665v2.26h4.248V7.837H41.958z M37.827,28.464
			c-2.401,0-4.347-2.103-4.347-4.698s1.946-4.698,4.347-4.698s4.347,2.103,4.347,4.698S40.228,28.464,37.827,28.464z"/>
		<path d="M59.976,25.656c0,0-0.648,2.808-3.78,2.808c-3.047,0-4.22-2.147-4.281-3.888h10.941c1.008-3.348-0.648-9.324-7.308-9.324
			c-3.204,0-7.956,2.34-7.956,8.424c0,6.084,4.86,8.46,8.388,8.46c3.852,0,6.768-1.98,7.668-5.004L59.976,25.656z M55.62,18.745
			c2.448,0,3.312,1.728,3.276,2.88h-7.017C51.949,20.752,53.239,18.745,55.62,18.745z"/>
		<path d="M76.176,25.656c0,0-0.648,2.808-3.78,2.808c-3.047,0-4.22-2.147-4.281-3.888h10.941c1.008-3.348-0.648-9.324-7.308-9.324
			c-3.204,0-7.956,2.34-7.956,8.424c0,6.084,4.86,8.46,8.388,8.46c3.852,0,6.768-1.98,7.668-5.004L76.176,25.656z M71.82,18.745
			c2.448,0,3.312,1.728,3.276,2.88h-7.017C68.149,20.752,69.439,18.745,71.82,18.745z"/>
		<path d="M107.243,25.656c0,0-0.648,2.808-3.78,2.808c-3.047,0-4.22-2.147-4.281-3.888h10.941c1.008-3.348-0.648-9.324-7.308-9.324
			c-3.204,0-7.956,2.34-7.956,8.424c0,6.084,4.86,8.46,8.388,8.46c3.852,0,6.768-1.98,7.668-5.004L107.243,25.656z M102.887,18.745
			c2.448,0,3.312,1.728,3.276,2.88h-7.017C99.216,20.752,100.507,18.745,102.887,18.745z"/>
		<polygon points="80.28,15.649 80.28,19.357 88.92,19.357 80.028,28.068 80.028,31.776 94.679,31.776 94.679,27.888 85.464,27.888 
			94.427,19.213 94.427,15.649 		"/>
		<path d="M120.347,15.253c-2.057,0-3.394,1.462-3.888,2.493v-2.097h-4.392v16.128h4.392V21.3c0-1.26,1.008-2.556,2.304-2.556
			c1.296,0,2.232,0.756,2.052,2.88h4.068C125.351,19.213,124.523,15.253,120.347,15.253z"/>
		<g>
			<linearGradient id="SVGID_1_" gradientUnits="userSpaceOnUse" x1="25.2539" y1="30.2194" x2="-0.522" y2="30.2194">
				<stop  offset="0" style="stop-color:#1682B4"/>
				<stop  offset="0.0303" style="stop-color:#1D75B2"/>
				<stop  offset="0.1487" style="stop-color:#3748AB"/>
				<stop  offset="0.2085" style="stop-color:#4137A8"/>
			</linearGradient>
			<rect x="19.332" y="28.68" fill="url(#SVGID_1_)" width="5.4" height="3.078"/>
			<linearGradient id="SVGID_2_" gradientUnits="userSpaceOnUse" x1="25.2539" y1="30.2194" x2="-0.522" y2="30.2194">
				<stop  offset="0" style="stop-color:#1682B4"/>
				<stop  offset="0.1823" style="stop-color:#244AB9"/>
				<stop  offset="0.2353" style="stop-color:#4137A8"/>
				<stop  offset="0.4392" style="stop-color:#A71C81"/>
				<stop  offset="0.7381" style="stop-color:#EF8907"/>
				<stop  offset="1" style="stop-color:#F6A400"/>
			</linearGradient>
			<rect y="28.68" fill="url(#SVGID_2_)" width="5.4" height="3.078"/>
			<linearGradient id="SVGID_3_" gradientUnits="userSpaceOnUse" x1="25.2539" y1="30.2194" x2="-0.522" y2="30.2194">
				<stop  offset="0" style="stop-color:#1682B4"/>
				<stop  offset="0.1823" style="stop-color:#244AB9"/>
				<stop  offset="0.2353" style="stop-color:#4137A8"/>
				<stop  offset="0.4392" style="stop-color:#A71C81"/>
				<stop  offset="0.7381" style="stop-color:#EF8907"/>
				<stop  offset="1" style="stop-color:#F6A400"/>
			</linearGradient>
			<rect x="12.906" y="28.68" fill="url(#SVGID_3_)" width="5.346" height="3.078"/>
			<linearGradient id="SVGID_4_" gradientUnits="userSpaceOnUse" x1="25.2539" y1="30.2194" x2="-0.522" y2="30.2194">
				<stop  offset="0" style="stop-color:#1682B4"/>
				<stop  offset="0.1823" style="stop-color:#244AB9"/>
				<stop  offset="0.2353" style="stop-color:#4137A8"/>
				<stop  offset="0.4392" style="stop-color:#A71C81"/>
				<stop  offset="0.7381" style="stop-color:#EF8907"/>
				<stop  offset="1" style="stop-color:#F6A400"/>
			</linearGradient>
			<rect x="6.48" y="28.68" fill="url(#SVGID_4_)" width="5.346" height="3.078"/>
			<linearGradient id="SVGID_5_" gradientUnits="userSpaceOnUse" x1="25.2539" y1="25.8455" x2="-0.522" y2="25.8455">
				<stop  offset="0" style="stop-color:#1682B4"/>
				<stop  offset="0.0303" style="stop-color:#1D75B2"/>
				<stop  offset="0.1487" style="stop-color:#3748AB"/>
				<stop  offset="0.2085" style="stop-color:#4137A8"/>
			</linearGradient>
			<rect x="19.332" y="24.306" fill="url(#SVGID_5_)" width="5.4" height="3.078"/>
			<linearGradient id="SVGID_6_" gradientUnits="userSpaceOnUse" x1="25.2539" y1="25.8455" x2="-0.522" y2="25.8455">
				<stop  offset="0" style="stop-color:#1682B4"/>
				<stop  offset="0.1823" style="stop-color:#244AB9"/>
				<stop  offset="0.2353" style="stop-color:#4137A8"/>
				<stop  offset="0.4392" style="stop-color:#A71C81"/>
				<stop  offset="0.7381" style="stop-color:#EF8907"/>
				<stop  offset="1" style="stop-color:#F6A400"/>
			</linearGradient>
			<rect x="6.48" y="24.306" fill="url(#SVGID_6_)" width="5.346" height="3.078"/>
			<linearGradient id="SVGID_7_" gradientUnits="userSpaceOnUse" x1="25.2539" y1="21.4715" x2="-0.522" y2="21.4715">
				<stop  offset="0.4032" style="stop-color:#B83664"/>
				<stop  offset="0.636" style="stop-color:#EF8907"/>
				<stop  offset="1" style="stop-color:#F6A400"/>
			</linearGradient>
			<rect x="6.48" y="19.933" fill="url(#SVGID_7_)" width="5.346" height="3.078"/>
		</g>
		<linearGradient id="SVGID_8_" gradientUnits="userSpaceOnUse" x1="25.2539" y1="25.8455" x2="-0.522" y2="25.8455">
			<stop  offset="0.2837" style="stop-color:#4137A8"/>
			<stop  offset="0.5091" style="stop-color:#A71C81"/>
		</linearGradient>
		<rect x="12.906" y="24.306" fill="url(#SVGID_8_)" width="5.346" height="3.078"/>
		<g>
			<rect x="19.332" y="23.001" fill="none" width="5.4" height="0.009"/>
			<linearGradient id="SVGID_9_" gradientUnits="userSpaceOnUse" x1="22.0319" y1="23.0015" x2="22.0319" y2="15.6665">
				<stop  offset="0.0968" style="stop-color:#1D958D"/>
				<stop  offset="0.7258" style="stop-color:#29AB70"/>
			</linearGradient>
			<rect x="19.332" y="19.933" fill="url(#SVGID_9_)" width="5.4" height="3.069"/>
			<linearGradient id="SVGID_10_" gradientUnits="userSpaceOnUse" x1="22.0319" y1="23.0015" x2="22.0319" y2="15.6665">
				<stop  offset="0.0968" style="stop-color:#1D958D"/>
				<stop  offset="0.7258" style="stop-color:#29AB70"/>
			</linearGradient>
			<rect x="19.332" y="15.667" fill="url(#SVGID_10_)" width="5.4" height="3.078"/>
		</g>
	</g>
	<rect x="0" y="0" fill="none" width="125" height="40"/>
</g>
</svg>
