<?xml version="1.0" standalone="no"?>
<!DOCTYPE svg PUBLIC "-//W3C//DTD SVG 20010904//EN"
 "http://www.w3.org/TR/2001/REC-SVG-20010904/DTD/svg10.dtd">
<svg version="1.0" xmlns="http://www.w3.org/2000/svg"
 width="743" height="177" viewBox="0 0 1000 177"
 preserveAspectRatio="xMidYMid meet">
<g transform="translate(0.000000,177.000000) scale(0.100000,-0.100000)"
fill="lightgrey" stroke="none">
<path d="M1990 1657 c-40 -15 -239 -174 -262 -209 -9 -13 -65 -59 -126 -101
-90 -63 -114 -76 -129 -68 -10 5 -117 24 -238 41 -121 18 -221 33 -221 33 -1
1 -11 21 -23 44 -11 23 -29 47 -39 52 -47 27 -48 29 -28 44 29 22 24 92 -10
128 -53 55 -116 47 -159 -20 -29 -47 -31 -68 -9 -92 15 -17 13 -18 -24 -29
-36 -9 -43 -16 -59 -58 -18 -47 -24 -144 -11 -172 6 -11 -13 -29 -70 -67 -142
-96 -142 -95 -152 -198 -5 -49 -10 -123 -10 -164 l0 -74 -131 -126 -132 -126
-5 -55 c-2 -32 -15 -72 -28 -96 -52 -90 -38 -237 30 -308 l33 -36 805 0 805 0
41 30 c128 92 221 309 222 512 0 78 0 78 35 100 19 13 35 31 35 41 0 29 -47
114 -85 152 -50 49 -90 63 -221 77 -107 11 -114 13 -114 34 0 26 -16 41 -50
46 -19 2 -26 11 -31 38 -4 19 -10 49 -14 65 -6 30 -5 31 110 93 64 34 127 62
140 62 13 0 83 25 155 56 162 70 185 94 185 189 0 52 -4 67 -28 98 -47 62
-122 88 -187 64z m140 -62 c62 -59 61 -147 -1 -199 -25 -21 -41 -26 -85 -26
-45 0 -59 5 -84 28 -17 15 -37 45 -45 67 -10 27 -14 33 -15 18 0 -16 -20 -36
-75 -73 l-75 -51 0 34 c0 26 9 42 48 78 63 61 143 126 178 145 45 23 118 14
154 -21z m-1204 -8 c3 -3 3 -15 -1 -27 -7 -21 -8 -21 -26 -4 -15 13 -22 15
-31 6 -15 -15 -55 -16 -63 -2 -4 6 -4 18 -1 27 5 12 18 15 61 11 30 -3 58 -7
61 -11z m-16 -71 c0 -8 -31 -36 -40 -36 -11 0 -40 29 -40 41 0 5 9 9 19 9 11
0 23 5 26 10 6 9 35 -10 35 -24z m-111 -87 c33 -24 84 -28 109 -7 25 22 42 11
42 -28 0 -30 -3 -34 -27 -34 -16 0 -57 -14 -91 -30 -75 -35 -78 -36 -92 -10
-9 16 -8 18 5 14 10 -4 14 -1 11 7 -2 8 -7 35 -10 62 -7 54 6 61 53 26z m934
-71 c3 -19 0 -38 -7 -44 -8 -8 -327 -203 -379 -232 -5 -2 -7 7 -5 22 2 20 39
50 188 155 102 71 188 130 191 130 4 1 9 -14 12 -31z m-515 -72 c128 -19 236
-36 238 -39 3 -2 -9 -13 -26 -24 -31 -19 -33 -19 -168 -1 -152 20 -177 17
-168 -15 4 -12 9 -53 13 -90 l6 -68 -39 6 c-86 14 -81 10 -93 78 -10 60 -29
129 -46 170 -10 24 7 23 283 -17z m132 -106 c10 0 8 -6 -8 -18 -13 -10 -32
-43 -42 -73 -12 -36 -24 -54 -34 -53 -9 0 -33 1 -54 2 l-38 2 0 63 c0 34 -4
71 -8 83 -8 21 -7 21 81 8 48 -8 95 -14 103 -14z m241 -132 c7 -26 10 -50 7
-54 -4 -3 -20 -3 -37 1 -28 6 -30 9 -28 48 1 40 24 74 39 59 4 -4 12 -28 19
-54z m-94 -32 c-5 -12 -87 -10 -87 3 0 4 19 16 43 28 41 20 42 20 45 1 2 -11
1 -25 -1 -32z m-280 -11 c114 -14 262 -32 328 -40 65 -8 121 -15 122 -15 2 0
3 -7 3 -15 0 -10 -10 -15 -27 -15 -15 0 -36 -8 -47 -19 -20 -18 -26 -18 -166
-2 -118 13 -151 20 -177 39 -47 34 -109 52 -195 59 -56 4 -78 10 -78 19 0 18
-6 18 237 -11z m-142 -45 c63 -8 102 -18 131 -35 40 -24 84 -79 99 -124 l7
-24 -73 6 c-41 4 -116 10 -167 13 l-92 7 -28 50 c-15 28 -38 59 -52 69 -25 18
-27 18 -88 -3 -35 -12 -111 -45 -170 -75 -58 -29 -108 -52 -109 -50 -9 9 217
132 295 161 45 17 128 18 247 5z m799 -90 c47 -6 92 -18 112 -30 29 -19 111
-126 102 -135 -1 -2 -62 3 -133 11 -72 7 -133 14 -136 14 -4 0 -9 14 -13 32
-4 20 -25 50 -55 79 l-48 46 46 -4 c25 -2 81 -8 125 -13z m-402 -11 c123 -12
159 -23 199 -56 36 -31 54 -65 64 -120 6 -39 5 -43 -14 -43 -31 0 -362 29
-398 36 -42 6 -42 26 -1 57 31 25 32 26 19 69 -7 24 -18 49 -23 56 -13 15 15
16 154 1z m-575 -121 c14 -26 18 -56 18 -138 0 -95 -3 -110 -27 -156 -99 -189
-272 -150 -307 69 -6 35 -5 50 5 58 11 9 14 6 14 -15 0 -22 4 -26 29 -26 20 0
30 -6 34 -20 4 -17 0 -20 -25 -20 -17 0 -27 -4 -23 -10 3 -5 19 -10 35 -10 20
0 31 -6 35 -20 3 -11 17 -28 31 -39 29 -23 31 -35 4 -28 -11 3 -20 1 -20 -4 0
-16 54 -10 87 10 17 11 44 41 59 67 23 40 29 62 32 133 3 70 0 93 -16 123 -14
26 -16 40 -9 47 17 17 25 13 44 -21z m276 -35 l97 -6 0 -44 0 -44 -45 7 c-41
6 -45 4 -45 -14 0 -20 24 -32 69 -32 17 0 22 -4 17 -16 -3 -9 -6 -35 -6 -59
l0 -44 -47 -3 c-36 -2 -49 -7 -51 -20 -3 -15 4 -18 42 -18 46 0 46 -1 40 -27
-23 -91 -27 -96 -80 -97 -38 -1 -49 -5 -52 -18 -3 -15 4 -18 37 -18 50 0 51
-10 12 -72 -29 -45 -30 -46 -73 -42 -35 4 -48 1 -63 -16 -18 -20 -18 -20 23
-20 23 0 42 -4 42 -9 0 -4 -18 -20 -40 -35 -38 -25 -45 -26 -184 -26 l-144 0
57 58 c120 123 201 343 201 550 l0 72 48 0 c26 0 91 -3 145 -7z m848 -90 c6
-6 9 -19 7 -29 -3 -15 -12 -19 -43 -19 -30 0 -40 -4 -43 -17 -2 -13 3 -18 20
-18 55 0 67 -10 62 -48 -12 -84 -10 -83 -55 -76 -30 5 -43 3 -50 -7 -15 -25
-10 -29 36 -29 25 0 45 -4 45 -8 0 -5 -7 -29 -16 -55 l-16 -47 -49 0 c-27 0
-49 -2 -49 -4 0 -2 -3 -11 -6 -20 -5 -13 2 -16 36 -16 47 0 48 -7 7 -67 -20
-30 -27 -33 -74 -33 -29 0 -53 -2 -53 -4 0 -2 -3 -12 -7 -21 -5 -15 -1 -17 30
-13 45 5 47 -4 8 -31 -25 -18 -44 -21 -141 -21 l-112 0 51 57 c97 108 164 288
177 470 l7 88 108 -11 c60 -5 114 -15 120 -21z m-1491 -112 c0 -11 2 -25 5
-33 3 -8 -26 -34 -75 -67 l-80 -55 -18 25 c-9 13 -17 25 -17 27 0 4 170 122
178 122 4 0 7 -9 7 -19z m-200 -183 c35 -77 22 -182 -29 -237 -54 -57 -130
-37 -160 42 -14 36 -14 124 -1 132 6 4 10 -10 10 -33 0 -31 4 -41 20 -45 27
-7 25 -27 -2 -28 -21 -1 -21 -2 -3 -6 27 -6 68 -51 59 -64 -4 -8 1 -9 17 -4
80 23 114 167 59 245 -24 34 -25 40 -5 40 9 0 25 -19 35 -42z m180 22 c0 -14
-48 -35 -58 -26 -8 9 26 36 45 36 7 0 13 -5 13 -10z m194 -93 c40 -54 19 -165
-39 -203 -77 -51 -137 73 -85 176 34 67 86 78 124 27z m-208 -38 c40 -44 11
-162 -43 -175 -21 -6 -31 -2 -50 20 -66 77 25 230 93 155z"/>
<path d="M2003 1600 c-57 -23 -78 -116 -36 -162 46 -51 105 -58 158 -17 41 33
29 38 -36 18 -67 -21 -79 -23 -79 -11 1 4 34 22 75 41 68 31 86 47 69 63 -3 4
-39 -14 -80 -38 -79 -47 -89 -50 -99 -33 -8 13 23 48 87 99 43 35 45 38 25 44
-30 8 -58 6 -84 -4z"/>
<path d="M997 1284 c-8 -8 1 -24 14 -24 5 0 9 7 9 15 0 15 -12 20 -23 9z"/>
<path d="M1020 1184 c0 -17 22 -14 28 4 2 7 -3 12 -12 12 -9 0 -16 -7 -16 -16z"/>
<path d="M1037 1103 c-12 -11 -8 -23 8 -23 8 0 15 7 15 15 0 16 -12 20 -23 8z"/>
<path d="M1340 710 c0 -13 5 -20 13 -17 6 2 12 10 12 17 0 7 -6 15 -12 18 -8
2 -13 -5 -13 -18z"/>
<path d="M1452 698 c6 -18 28 -21 28 -4 0 9 -7 16 -16 16 -9 0 -14 -5 -12 -12z"/>
<path d="M1565 691 c-3 -5 -1 -12 5 -16 12 -7 30 2 30 16 0 12 -27 12 -35 0z"/>
<path d="M1670 675 c0 -8 7 -15 15 -15 8 0 15 7 15 15 0 8 -7 15 -15 15 -8 0
-15 -7 -15 -15z"/>
<path d="M615 228 c-30 -26 -47 -98 -24 -98 11 0 11 -2 -1 -10 -13 -9 -13 -10
0 -10 8 0 21 -9 28 -20 16 -25 26 -25 51 1 38 41 36 125 -3 151 -17 12 -23 10
-51 -14z"/>
<path d="M421 184 c-23 -30 -28 -70 -8 -77 9 -4 8 -6 -2 -6 -8 -1 -2 -10 14
-23 l28 -22 18 23 c23 29 25 94 3 115 -21 22 -29 20 -53 -10z"/>
</g>
<linearGradient id="linear-gradient" x1="0" x2="0" y1="1" y2="0">
<stop offset="0%" stop-color="#FFA829"/>
<stop offset="100%" stop-color="#FF3642"/>
</linearGradient>
<g transform="translate(250,150) scale(0.1,-0.1)"
fill="url(#linear-gradient)" stroke="none">
<path d="M12 988 c-9 -9 -12 -128 -12 -473 0 -401 2 -463 16 -483 13 -19 24
-22 88 -22 108 0 106 -5 106 231 0 107 3 271 7 366 6 169 6 172 30 177 12 4
34 4 48 0 l25 -6 0 -353 c0 -347 4 -399 33 -417 7 -4 44 -8 83 -8 118 0 108
-35 112 422 4 477 3 490 -48 540 l-38 38 -219 0 c-157 0 -222 -3 -231 -12z"/>
<path d="M666 978 c-14 -20 -16 -81 -16 -473 0 -343 3 -456 13 -475 l13 -25
243 -3 c294 -3 281 -8 281 108 0 109 -2 110 -171 110 -92 0 -139 4 -147 12
-16 16 -16 130 0 146 8 8 54 12 143 12 171 0 175 3 175 109 0 110 -2 111 -171
111 -92 0 -139 4 -147 12 -14 14 -16 126 -2 148 7 12 39 16 152 18 168 4 167
3 168 109 0 108 13 103 -275 103 -241 0 -244 0 -259 -22z"/>
<path d="M1327 982 c-15 -17 -17 -63 -17 -449 l0 -430 23 -34 c46 -69 52 -70
434 -67 l342 3 30 29 c17 17 36 46 41 65 6 21 10 207 10 446 0 355 -2 414 -16
433 -13 20 -24 22 -94 22 -58 0 -83 -4 -94 -16 -14 -13 -16 -62 -16 -378 0
-404 2 -390 -67 -384 l-38 3 -6 110 c-4 61 -7 229 -8 374 -1 176 -5 269 -12
278 -15 17 -162 18 -177 1 -6 -8 -12 -152 -15 -373 -4 -199 -9 -369 -13 -378
-9 -23 -89 -24 -98 -1 -3 9 -6 177 -6 373 0 420 8 391 -112 391 -60 0 -78 -4
-91 -18z"/>
</g>
<g transform="translate(480,150) scale(0.1,-0.1)"
fill="white" stroke="none">
<path d="M70 962 c-51 -50 -52 -66 -48 -509 3 -347 4 -363 24 -390 40 -55 72
-63 252 -63 184 0 219 9 252 62 18 30 20 50 20 255 0 167 -3 224 -12 230 -7 4
-61 9 -119 11 -98 4 -109 2 -128 -17 -17 -17 -21 -33 -21 -85 0 -80 12 -116
40 -116 19 0 21 -5 18 -57 l-3 -58 -40 -3 c-64 -5 -65 -2 -65 282 0 138 4 256
8 263 11 18 58 26 81 13 18 -9 21 -20 21 -69 0 -38 5 -63 14 -70 22 -18 140
-26 176 -11 l30 12 0 130 c0 142 -8 171 -59 207 -27 19 -43 21 -216 21 l-187
0 -38 -38z"/>
<path d="M699 983 c-12 -13 -13 -99 -11 -487 3 -421 5 -472 20 -483 22 -18
153 -17 178 1 16 12 19 31 24 145 l5 131 45 -55 c42 -51 45 -59 50 -130 7 -94
18 -104 113 -105 107 0 107 0 107 140 l0 120 -54 63 -54 64 34 16 c19 9 43 31
54 49 19 31 20 47 18 256 l-3 224 -37 34 -38 34 -219 0 c-192 0 -220 -2 -232
-17z m295 -206 c14 -10 16 -25 14 -87 l-3 -75 -45 0 -45 0 -3 75 c-3 78 7 100
48 100 9 0 24 -6 34 -13z"/>
<path d="M1408 985 c-14 -8 -36 -34 -47 -59 -21 -43 -22 -53 -19 -432 3 -423
3 -425 61 -468 26 -19 44 -21 200 -24 194 -3 222 4 264 67 23 34 23 35 23 428
0 431 -1 441 -58 482 -28 20 -42 21 -214 21 -140 -1 -189 -4 -210 -15z m243
-205 c18 -10 19 -24 19 -279 0 -294 3 -281 -59 -281 -50 0 -51 5 -51 287 l0
264 23 9 c30 12 45 12 68 0z"/>
<path d="M2016 978 c-14 -19 -16 -78 -16 -442 0 -402 1 -421 20 -462 32 -66
59 -74 249 -74 176 0 207 7 251 55 l25 27 3 440 c3 519 13 478 -111 478 -64 0
-82 -3 -93 -17 -11 -14 -13 -95 -14 -378 0 -198 -4 -366 -9 -373 -5 -9 -24
-12 -52 -10 l-44 3 -2 365 c-2 256 -6 372 -15 388 -10 20 -18 22 -94 22 -74 0
-84 -2 -98 -22z"/>
<path d="M2676 985 c-14 -15 -16 -66 -16 -485 0 -413 2 -470 16 -484 11 -12
35 -16 88 -16 120 0 110 -32 116 402 l5 373 44 3 c28 2 47 -1 52 -10 5 -7 9
-175 9 -374 0 -422 -8 -394 106 -394 118 0 109 -38 112 444 2 260 -1 431 -8
454 -5 21 -24 51 -40 67 l-31 30 -218 3 c-191 3 -221 1 -235 -13z"/>
<path d="M3329 983 c-11 -13 -14 -102 -14 -485 0 -453 1 -470 19 -484 16 -11
63 -14 218 -14 179 0 203 2 238 20 71 36 70 31 70 480 0 438 0 437 -59 479
-27 20 -42 21 -244 21 -187 0 -216 -2 -228 -17z m294 -205 c16 -12 17 -38 15
-283 l-3 -270 -40 -3 c-64 -5 -65 -1 -65 272 0 133 3 251 6 263 9 31 57 43 87
21z"/>
<path d="M4038 985 c-14 -8 -35 -34 -47 -58 -19 -39 -21 -61 -21 -228 0 -159
3 -190 19 -226 30 -65 56 -77 190 -83 l116 -5 0 -80 0 -80 -141 -3 c-175 -3
-179 -6 -179 -119 0 -106 -6 -103 239 -103 307 0 306 -1 306 305 0 170 -3 205
-18 235 -27 54 -69 70 -189 70 -119 0 -123 3 -123 92 0 83 -1 83 162 86 168 4
167 3 168 109 0 107 9 103 -243 103 -165 -1 -218 -4 -239 -15z"/>
</g>
</svg>