<?xml version="1.0" encoding="utf-8"?>
<!-- Generator: Adobe Illustrator 21.0.0, SVG Export Plug-In . SVG Version: 6.00 Build 0)  -->
<svg version="1.1" id="Layer_1" xmlns="http://www.w3.org/2000/svg" xmlns:xlink="http://www.w3.org/1999/xlink" x="0px" y="0px"
	 viewBox="0 0 512 512" style="enable-background:new 0 0 512 512;" xml:space="preserve">
<g>
	<path d="M511.9,252.5C510.1,114.4,397.6,1.9,259.6,0C115.6-1.9-1.9,115.6,0,259.6c2,138,114.4,250.5,252.4,252.4
		C396.4,514,513.9,396.4,511.9,252.5z M415.2,402.8c-1.8,2-5,2.1-7,0.3c-0.2-0.2-0.4-0.4-0.6-0.7c-11-14.4-24.5-26.7-39.8-36.4
		c-31.3-20.1-71-31.2-111.8-31.2c-40.8,0-80.4,11.1-111.8,31.2c-15.3,9.7-28.8,22-39.8,36.4c-1.6,2.2-4.7,2.6-6.9,1
		c-0.2-0.2-0.5-0.4-0.7-0.6c-36.1-39-56.6-89.9-57.4-143.1c-2-119.8,96.3-220,216.1-220.3s217.1,97,217.1,216.6
		C472.6,310.4,452.1,362.8,415.2,402.8z"/>
	<path d="M256,118.2c-24.3,0-46.2,9.1-61.8,25.6c-15.6,16.5-23.4,39.4-21.6,63.9c3.6,48.3,41,87.7,83.4,87.7s79.8-39.4,83.4-87.7
		c1.8-24.3-5.9-46.9-21.8-63.8C302,127.3,280.1,118.2,256,118.2z"/>
</g>
</svg>
