<svg xmlns="http://www.w3.org/2000/svg" viewBox="0 0 350 350" version="1.1">
 <g>
   <path d="m63.3212,186.14811c-10.92406,162.56464 237.28824,163.02916 226.31989,0c-9.41831,-140.26794 -216.88682,-140.26794 -226.31989,0z" fill="rgb(239, 239, 239)" stroke="#000" stroke-width="2px"/>
   <path d="m166.96836,41.83115c-0.64363,0.06813 -2.80778,0.27561 -4.80954,0.45677c-24.82271,2.25754 -49.54503,13.38112 -67.80887,30.51087c-14.62938,13.71867 -24.78137,30.38081 -29.90239,49.06978c-1.41865,5.17624 -1.23412,6.97391 0.66873,6.52643c0.36758,-0.08671 3.64184,-0.15948 7.27483,-0.16258c7.90075,-0.00465 7.42098,0.23845 8.74958,-4.42992c14.25885,-50.07158 72.29954,-79.16259 124.96236,-62.63051c31.22066,9.80281 54.58781,33.14467 63.72711,63.66947c0.81635,2.72515 0.91378,2.75922 8.24176,2.75922c9.11716,0 9.06254,0.048 7.17888,-6.69366c-5.03983,-18.03556 -15.23758,-34.62957 -29.4551,-47.93327c-9.00644,-8.42939 -16.55438,-13.64744 -27.78253,-19.21387c-11.77289,-5.83276 -25.72025,-9.87713 -39.63809,-11.49054c-2.88602,-0.33445 -19.26325,-0.67045 -21.40672,-0.43819m-101.85207,91.94913c-8.1458,1.18606 -14.72091,6.61779 -16.71086,13.81002c-0.6333,2.29006 -0.78092,101.48716 -0.155,104.05902c3.33479,13.6846 22.63347,18.83297 33.71253,8.99455c3.06464,-2.72206 3.83228,-4.01495 3.62856,-6.11301c-0.09891,-1.01574 0.031,-2.65702 0.30263,-3.82605c0.40301,-1.73109 0.46206,-9.67739 0.38529,-51.6339l-0.09005,-49.59004l-0.23177,-2.83818c-0.05167,-2.38915 -0.14467,-2.04851 -0.49896,-3.44515l-1.17655,-2.19561l-2.05933,-1.90141c-4.25595,-3.92515 -11.40531,-6.15017 -17.10648,-5.32024m211.68166,2.00051c-3.56213,0.87793 -6.0289,2.19096 -9.00792,4.79069c-0.88721,0.77729 -0.94921,1.17832 -1.55299,2.56877c-0.49158,1.13342 -0.56097,1.1458 -0.90788,2.92335c-0.74992,3.83689 -1.12341,-0.07123 -1.22379,53.47802c-0.05905,31.18287 0.02805,50.30539 0.2362,51.79183c0.20077,1.44 0.21405,2.93109 0.03248,3.81212c-0.27605,1.33935 -0.217,1.56232 0.78535,2.96051c8.51781,11.87454 27.84454,11.25829 34.74884,-1.10864c2.34277,-4.19766 2.19515,-0.37471 2.19072,-56.34098l-0.0059,-50.54539l-0.95069,-2.57341c-3.42336,-9.25778 -13.92522,-14.32873 -24.34441,-11.75687m36.49078,19.02652c-0.94035,0.64722 -1.03188,90.47816 -0.09448,91.36074c1.42013,1.33471 2.74578,0.58219 6.13076,-3.4916c19.81535,-23.83889 20.05155,-59.42536 0.55654,-83.57238c-3.76437,-4.66063 -4.94387,-5.43018 -6.59282,-4.29676m-279.91863,1.13651c-23.7052,24.69979 -23.61073,64.06741 0.21848,90.73984c1.06436,1.19225 2.64539,1.45393 3.56213,0.58993l0.70416,-0.66271l0,-45.26695c0,-50.21868 0.16386,-46.66669 -2.15381,-46.66669c-0.8754,0 -1.37289,0.26787 -2.33096,1.26658" fill="#0b0f11"/>
   <path d="m130.96178,262.15819c9.25592,15.94834 27.72349,24.15476 44.70006,25.88895c21.44953,2.18322 41.36379,-6.8903 54.26599,-25.20766c1.81576,-2.5858 -2.28815,-5.09418 -4.08914,-2.53935c-11.8836,16.89285 -30.54307,24.80508 -50.17685,22.71477c-15.27892,-1.61032 -32.27026,-9.02707 -40.62568,-23.39605c-1.57956,-2.74064 -5.6687,-0.21677 -4.07438,2.53935l0,0l0,-0.00001z" fill=" rgb(17, 10, 9)"/>
   <path d="m211.17979,208.15062c-40.92093,-10.049 -51.22497,-4.49031 -52.19928,4.90837c-1.5648,14.89544 -2.99673,30.19345 45.01007,20.68639c11.63264,-2.30709 26.1144,-6.64256 43.77004,-13.43996c-14.12746,-5.65159 -26.2325,-9.61545 -36.58083,-12.1548z" stroke="#D14B02" fill="#FF7900" stroke-width="2px"/>
   <g>
    <path d="m199.96049,175.92879c2.06671,0.24774 4.13343,0.48 6.20014,0.72774c5.47679,1.33161 10.71739,4.08773 16.4599,3.57676c2.33243,-0.20129 4.39915,-1.03742 6.31824,-2.18322c4.50248,-2.0129 8.00113,-5.94579 13.07934,-7.07611c2.31767,-0.51097 1.26955,-4.2116 -1.04812,-3.70063c-0.62001,0.13935 -1.2105,0.32516 -1.78623,0.55742c-0.47239,-0.80516 -1.43194,-1.26967 -2.39148,-0.5729c-3.86771,2.78709 -7.14492,6.16256 -11.07168,7.89675c-0.69383,0.15484 -1.41717,0.24774 -2.17005,0.24774c-7.38112,0.06194 -15.21987,-4.50579 -21.95145,-7.23094c-1.66813,-0.68129 -3.14436,2.13677 -1.72718,3.2516c0.31001,0.24774 0.62001,0.46451 0.93002,0.69677c-0.16238,0 -0.31001,0 -0.45763,0c-1.97814,0.07742 -2.50958,3.56128 -0.38382,3.80902z" fill="rgb(17, 10, 9)"/>
    <path d="m124.71735,179.47458c2.02243,0.96 4.14819,1.59483 6.48062,1.59483c5.75727,-0.01548 10.74691,-3.2516 16.09084,-5.07869c2.03719,-0.43355 4.07438,-0.86709 6.12633,-1.28516c2.09624,-0.44903 1.28431,-3.87096 -0.70859,-3.74708c-0.16238,0.01548 -0.31001,0.03097 -0.45763,0.04645c0.29524,-0.26322 0.59049,-0.51097 0.87097,-0.78967c1.31384,-1.25419 -0.38382,-3.91741 -1.9929,-3.08128c-6.48062,3.32902 -13.89127,8.609 -21.25762,9.22836c-0.75287,0.06194 -1.47622,0.03097 -2.18481,-0.04645c-4.05962,-1.36258 -7.60255,-4.41289 -11.67693,-6.84385c-1.01859,-0.60387 -1.93385,-0.06194 -2.3472,0.78967c-0.59049,-0.17032 -1.19574,-0.30968 -1.83052,-0.3871c-2.3472,-0.29419 -3.07055,3.48386 -0.72335,3.77805c5.13726,0.63484 8.96068,4.22708 13.61078,5.82192l0.00001,0z" fill="rgb(17, 10, 9)"/>
   </g>
  </g>
</svg>
