<svg viewBox="0 0 70 24" width="70" height="24" xmlns="http://www.w3.org/2000/svg">
 <g>
  <ellipse id="svg_1" fill="red" ry="12" rx="12.18" cy="12" cx="12.18"/>
  <ellipse id="svg_2" stroke-width="1.2" stroke="#fff" fill="red" ry="7.2" rx="7.308" cy="12" cx="12.18"/>
  <path id="svg_3" fill="black" d="m9.40447,15.545l6.327,-3.544l-6.327,-3.546l0,7.09zm27.689,-5.903c-0.579,2.853 -1.019,6.336 -1.25,7.774l-0.163,0c-0.187,-1.482 -0.627,-4.942 -1.227,-7.75l-1.483,-6.989l-4.52,0l0,18.85l2.803,0l0,-15.54l0.277,1.451l2.85,14.086l2.804,0l2.803,-14.086l0.3,-1.459l0,15.547l2.804,0l0,-18.85l-4.563,0l-1.435,6.966zm13.577,9.054c-0.256,0.517 -0.81,0.876 -1.368,0.876c-0.648,0 -0.904,-0.494 -0.904,-1.706l0,-10.112l-3.198,0l0,10.29c0,2.54 0.856,3.706 2.758,3.706c1.296,0 2.338,-0.562 3.058,-1.909l0.07,0l0.277,1.684l2.502,0l0,-13.77l-3.198,0l0,10.94l0.003,0l0,0.001zm9.382,-5.506c-1.043,-0.742 -1.691,-1.236 -1.691,-2.314c0,-0.763 0.37,-1.19 1.25,-1.19c0.905,0 1.206,0.605 1.227,2.674l2.689,-0.111c0.208,-3.346 -0.928,-4.74 -3.87,-4.74c-2.733,0 -4.078,1.19 -4.078,3.638c0,2.224 1.113,3.235 2.92,4.562c1.553,1.169 2.457,1.82 2.457,2.764c0,0.72 -0.464,1.213 -1.275,1.213c-0.95,0 -1.507,-0.877 -1.365,-2.405l-2.71,0.044c-0.419,2.852 0.766,4.515 3.915,4.515c2.758,0 4.195,-1.236 4.195,-3.706c-0.003,-2.247 -1.16,-3.147 -3.664,-4.944zm8.48,-5.436l-3.059,0l0,13.77l3.06,0l0,-13.769l-0.001,-0.001zm-1.507,-5.438c-1.18,0 -1.738,0.427 -1.738,1.911c0,1.528 0.554,1.909 1.739,1.909c1.205,0 1.738,-0.383 1.738,-1.909c0,-1.414 -0.533,-1.911 -1.739,-1.911zm11.793,14.244l-2.803,-0.135c0,2.426 -0.277,3.212 -1.226,3.212c-0.95,0 -1.113,-0.877 -1.113,-3.73l0,-2.67c0,-2.765 0.187,-3.639 1.137,-3.639c0.88,0 1.112,0.83 1.112,3.393l2.778,-0.178c0.187,-2.134 -0.093,-3.595 -0.949,-4.425c-0.627,-0.608 -1.576,-0.897 -2.896,-0.897c-3.104,0 -4.379,1.618 -4.379,6.154l0,1.932c0,4.673 1.088,6.178 4.264,6.178c1.344,0 2.27,-0.27 2.896,-0.854c0.902,-0.814 1.249,-2.205 1.18,-4.341l-0.001,0z" transform="translate(3 2) scale(0.85 0.85)"/>
  <path transform="rotate(90 13.4278 12.0646)" stroke="null" id="svg_6" d="m9.61742,15.68859l3.81036,-7.24803l3.81036,7.24803l-7.62073,0z" fill="#fff"/>
 </g>
</svg>