<svg width="125" height="40" viewBox="0 0 125 40" fill="none" xmlns="http://www.w3.org/2000/svg">
<path d="M44.7757 22.1733H40.3864L39.333 25.2857H37.4736L41.632 13.77H43.5631L47.7215 25.2857H45.83L44.7757 22.1733ZM40.8408 20.7372H44.3203L42.6045 15.6855H42.5566L40.8408 20.7372Z" fill="black"/>
<path d="M56.6905 21.0887C56.6905 23.6988 55.294 25.375 53.1872 25.375C52.0979 25.432 51.0721 24.8616 50.5459 23.9067H50.5063V28.0642H48.7822V16.8908H50.4502V18.2882H50.4824C51.0316 17.3379 52.0593 16.7675 53.1559 16.8034C55.2866 16.8034 56.6905 18.487 56.6905 21.0887ZM54.9195 21.0887C54.9195 19.3895 54.0419 18.2717 52.7005 18.2717C51.384 18.2717 50.498 19.4125 50.498 21.0887C50.498 22.7806 51.384 23.914 52.7005 23.914C54.0409 23.914 54.9195 22.8045 54.9195 21.0887Z" fill="black"/>
<path d="M65.9249 21.0887C65.9249 23.6988 64.5284 25.375 62.4216 25.375C61.3323 25.432 60.3065 24.8616 59.7802 23.9067H59.7407V28.0642H58.0166V16.8908H59.6846V18.2882H59.7168C60.266 17.3379 61.2936 16.7675 62.3903 16.8034C64.5201 16.8034 65.9249 18.487 65.9249 21.0887ZM64.153 21.0887C64.153 19.3895 63.2753 18.2717 61.934 18.2717C60.6174 18.2717 59.7315 19.4125 59.7315 21.0887C59.7315 22.7806 60.6174 23.914 61.934 23.914C63.2753 23.914 64.153 22.8045 64.153 21.0887Z" fill="black"/>
<path d="M67.3135 13.77H69.0366V25.2866H67.3135V13.77Z" fill="black"/>
<path d="M78.008 22.821C77.616 24.4622 76.0714 25.5598 74.3924 25.3905C71.9507 25.3905 70.4336 23.7538 70.4336 21.1291C70.4336 18.4951 71.958 16.7876 74.3206 16.7876C76.6427 16.7876 78.1036 18.3838 78.1036 20.9294V21.5201H72.1742V21.624C72.119 22.2487 72.3343 22.8679 72.7667 23.3233C73.1991 23.7787 73.8054 24.0262 74.4328 24.0022C75.2691 24.0804 76.0576 23.6002 76.3722 22.821H78.008ZM72.1816 20.3149H76.3796C76.4108 19.7528 76.2066 19.2035 75.8156 18.7996C75.4246 18.3948 74.8827 18.1722 74.3206 18.1842C73.7539 18.1805 73.2083 18.404 72.8072 18.8042C72.4052 19.2035 72.1807 19.7472 72.1816 20.3149Z" fill="black"/>
<path d="M92.9721 25.2866V16.8106H92.916L89.4439 25.1992H88.1191L84.6397 16.8106H84.5845V25.2866H82.9561V13.77H85.0224L88.7502 22.8596H88.8146L92.5333 13.77H94.6088V25.2866H92.9721Z" fill="black"/>
<path d="M103.787 25.2865H102.136V23.8421H102.095C101.641 24.8541 100.6 25.4705 99.4937 25.3822C98.6703 25.4301 97.868 25.1127 97.3004 24.5137C96.7328 23.9148 96.4577 23.0969 96.5497 22.2781V16.8906H98.2738V21.9433C98.2738 23.2202 98.88 23.8983 100.069 23.8983C100.634 23.9167 101.181 23.6876 101.565 23.2708C101.948 22.8541 102.13 22.2901 102.064 21.728V16.8915H103.788L103.787 25.2865Z" fill="black"/>
<path d="M108.689 16.7949C110.548 16.7949 111.881 17.8253 111.921 19.3093H110.302C110.229 18.5668 109.6 18.1124 108.642 18.1124C107.707 18.1124 107.085 18.5429 107.085 19.198C107.085 19.7003 107.5 20.0352 108.371 20.2514L109.783 20.578C111.475 20.9855 112.113 21.6084 112.113 22.8375C112.113 24.3536 110.677 25.3914 108.626 25.3914C106.647 25.3914 105.313 24.3776 105.187 22.8448H106.894C107.015 23.6517 107.66 24.0822 108.706 24.0822C109.735 24.0822 110.383 23.659 110.383 22.9884C110.383 22.4704 110.063 22.1907 109.186 21.9672L107.685 21.6001C106.169 21.233 105.403 20.4593 105.403 19.2946C105.401 17.8088 106.733 16.7949 108.689 16.7949Z" fill="black"/>
<path d="M113.455 14.68C113.447 14.2724 113.686 13.9007 114.061 13.7397C114.435 13.5787 114.869 13.6597 115.159 13.9458C115.45 14.2319 115.538 14.6643 115.383 15.0415C115.227 15.4178 114.859 15.6634 114.453 15.6616C113.906 15.6653 113.461 15.2264 113.455 14.68ZM113.591 16.8907H115.315V25.2866H113.591V16.8907Z" fill="black"/>
<path d="M122.74 19.7795C122.584 18.8273 121.723 18.1539 120.761 18.2312C119.437 18.2312 118.559 19.3407 118.559 21.0887C118.559 22.8762 119.444 23.9545 120.778 23.9545C121.728 24.0492 122.589 23.3878 122.741 22.4457H124.4C124.186 24.2516 122.571 25.5571 120.761 25.3915C118.367 25.3915 116.802 23.7548 116.802 21.0896C116.802 18.4805 118.366 16.7886 120.744 16.7886C122.567 16.634 124.182 17.9616 124.383 19.7804L122.74 19.7795Z" fill="black"/>
<path fill-rule="evenodd" clip-rule="evenodd" d="M34 13.6335C34 13.2266 34 12.8203 34 12.4146C34 12.0746 34 11.7346 33.9847 11.3946C33.9751 10.6467 33.9092 9.90053 33.7875 9.1625C33.6619 8.42329 33.4264 7.70702 33.0888 7.0375C32.4035 5.69162 31.3097 4.59724 29.9642 3.9112C29.2956 3.57439 28.5805 3.33892 27.8426 3.2125C27.104 3.0909 26.3573 3.02498 25.6088 3.0153C25.2688 3.0051 24.9288 3.0017 24.5888 3H9.4163C9.0763 3 8.7363 3 8.3963 3.0153C7.64611 3.02472 6.89769 3.09064 6.1574 3.2125C5.41912 3.33844 4.70395 3.57454 4.0358 3.9129C2.6917 4.5979 1.59863 5.69037 0.9129 7.0341C0.575344 7.70303 0.339834 8.41873 0.2142 9.1574C0.092597 9.89601 0.026678 10.6427 0.017 11.3912C0.0068 11.7312 0.0034 12.0712 0.0017 12.4112C0.000566667 12.8226 0 13.23 0 13.6335V26.3614C0 26.766 0 27.1723 0 27.5803C0 27.9203 0 28.2603 0.0153 28.6003C0.024901 29.3488 0.0908205 30.0955 0.2125 30.8341C0.338134 31.5728 0.573644 32.2885 0.9112 32.9574C1.59693 34.3011 2.69 35.3936 4.0341 36.0786C4.70267 36.4159 5.41769 36.652 6.1557 36.779C6.89424 36.9009 7.64101 36.9662 8.3895 36.9745C8.7295 36.9847 9.0695 36.9881 9.4095 36.9898C9.8158 36.9898 10.2221 36.9898 10.6284 36.9898H24.5684C24.9084 36.9898 25.2484 36.9898 25.5884 36.9745C26.3369 36.9664 27.0837 36.901 27.8222 36.779C28.5609 36.6528 29.2766 36.4167 29.9455 36.0786C31.2886 35.3928 32.3809 34.3005 33.0667 32.9574C33.4048 32.2885 33.6409 31.5728 33.7671 30.8341C33.889 30.0956 33.9543 29.3488 33.9626 28.6003C33.9728 28.2603 33.9762 27.9203 33.9779 27.5803C33.9779 27.174 33.9779 26.7677 33.9779 26.3614V13.6335H34Z" fill="url(#paint0_linear)"/>
<path fill-rule="evenodd" clip-rule="evenodd" d="M24.0359 8.19343C23.9543 8.19343 23.2233 8.32943 23.1349 8.34813L13.0301 10.3881C12.7996 10.4278 12.5827 10.5249 12.3994 10.6703C12.2091 10.8397 12.088 11.0734 12.0594 11.3265C12.044 11.4392 12.0366 11.5528 12.0373 11.6665V24.3145C12.0646 24.608 11.9849 24.9014 11.8129 25.1407C11.6225 25.3539 11.3595 25.4885 11.0751 25.5181L10.4155 25.6507C9.7799 25.7556 9.15432 25.9143 8.54554 26.125C8.12866 26.2744 7.75132 26.5168 7.44224 26.8339C6.43395 27.9204 6.49399 29.6176 7.57654 30.63C7.91977 30.949 8.34459 31.1667 8.80394 31.259C9.31394 31.361 9.84264 31.3253 10.6263 31.1672C11.0419 31.0898 11.4413 30.9426 11.8078 30.732C12.1764 30.5152 12.4936 30.2212 12.7377 29.8701C12.9809 29.5195 13.1493 29.1225 13.2324 28.7039C13.3152 28.2922 13.3528 27.8726 13.3446 27.4527V16.486C13.3446 15.8978 13.5146 15.7431 13.9855 15.636C13.9855 15.636 22.3852 13.936 22.7779 13.8663C23.3236 13.7609 23.582 13.9173 23.582 14.4902V21.9702C23.582 22.266 23.582 22.5669 23.3763 22.8202C23.1864 23.0328 22.9238 23.1668 22.6402 23.1959L21.9789 23.3302C21.3434 23.4349 20.7179 23.593 20.1089 23.8028C19.6926 23.9532 19.3155 24.1955 19.0056 24.5117C18.5092 25.0276 18.2432 25.7227 18.2685 26.4382C18.2939 27.1537 18.6083 27.8283 19.1399 28.3078C19.4841 28.6244 19.9087 28.8402 20.3673 28.9317C20.8773 29.0337 21.4077 28.9963 22.1914 28.8399C22.6061 28.7641 23.005 28.6187 23.3712 28.4098C23.7397 28.1936 24.0569 27.9001 24.3011 27.5496C24.5441 27.1988 24.7124 26.8019 24.7958 26.3834C24.873 25.9705 24.9049 25.5504 24.891 25.1305V9.08593C24.8893 8.50453 24.5833 8.14583 24.0359 8.19343Z" fill="white"/>
<defs>
<linearGradient id="paint0_linear" x1="17" y1="36.8657" x2="17" y2="3.731" gradientUnits="userSpaceOnUse">
<stop stop-color="#FA233B"/>
<stop offset="1" stop-color="#FB5C74"/>
</linearGradient>
</defs>
</svg>
