<svg width="64" height="64" xmlns="http://www.w3.org/2000/svg">
 <g>
  <path d="m21.37094,42.37803c3.21351,4.49361 13.01931,4.81793 16.38718,2.91258c1.23644,-0.70008 1.54517,-2.72392 1.54517,-4.09602c0,-0.94176 -0.24791,-1.68238 -0.74374,-2.2203c-0.52389,-0.53792 -1.85389,-1.90378 -3.39594,-2.30761c-7.82718,-2.0176 -13.24072,-4.53883 -15.36123,-6.36933c-2.6444,-2.28735 -3.07006,-3.78106 -3.07006,-7.76325c0,-3.98219 1.14445,-7.32044 3.73428,-9.71537c2.58827,-2.39493 6.3475,-3.59239 11.27769,-3.59239c4.70878,0 11.33226,1.24268 14.56136,5.07675l-5.38391,5.85635c-3.03576,-2.54929 -5.29504,-2.78005 -9.01217,-2.78005c-2.34036,0 -3.55965,0.33679 -4.5513,1.0088c-0.99165,0.64551 -1.48748,1.49371 -1.48748,2.54305c0,0.94176 0.45373,1.72292 1.36274,2.34036c0.90901,0.64551 3.28367,1.61533 8.02052,2.90635c5.31531,1.45317 8.9233,3.21507 10.82396,5.28724c1.8726,2.07218 2.80968,4.8304 2.80968,8.27467c0,4.14435 -1.45941,7.56212 -4.37823,10.25173c-2.89231,2.69118 -6.45197,4.78206 -11.57394,4.78206c-6.59385,0 -15.39553,-2.32944 -17.82321,-6.63439" fill="#00FF00"/>
  <path stroke="null" id="svg_2" d="m29.34408,0.74508l0,11.18594l5.31185,0l0,-11.18594l-5.31185,0m0,52.44838l0,10.06146l5.31185,0l0,-10.06146l-5.31185,0" fill="#00FF00"/>
 </g>
</svg>